<svg width="141" height="34" viewBox="0 0 141 34" fill="none" xmlns="http://www.w3.org/2000/svg">
<g clip-path="url(#clip0_1808_574)">
<path d="M43.6781 0.484375H57.8615L56.533 6.59136H50.0195L48.6049 13.1433H54.5644L53.2467 19.2502H47.2764L44.415 32.7831H36.7344L43.6781 0.484375Z" fill="white"/>
<path d="M60.0297 0.484375H74.2238L72.8953 6.59136H66.3818L64.9565 13.1433H70.916L69.5875 19.2502H63.628L60.7773 32.7831H53.0859L60.0297 0.484375Z" fill="white"/>
<path d="M79.2844 22.4124L78.6928 25.1773C78.3001 27.1158 78.5475 27.6031 79.2844 27.6031C80.0213 27.6031 80.3225 26.9728 80.6667 25.2249C81.1562 22.7991 80.5161 21.2949 78.3485 18.7737C75.4925 15.4262 73.4271 13.1487 74.6588 7.42306C75.7883 2.18472 78.3001 0.0078125 83.4259 0.0078125C91.354 0.0078125 91.6014 5.05018 90.5149 9.80653L90.3213 10.6805H83.4743L84.0122 8.34996C84.4102 6.60208 84.308 5.78111 83.3721 5.78111C82.9311 5.78111 82.3879 5.97179 82.092 7.33301C81.5542 9.8542 81.9952 10.3892 84.1144 12.958C88.1537 17.8574 89.4338 19.9442 88.2505 25.5692C87.0672 31.1942 84.1628 33.2811 78.6444 33.2811C72.0448 33.2811 70.1246 29.7906 71.5554 23.6783L71.8512 22.4177L79.2844 22.4124Z" fill="white"/>
<path d="M92.875 21.8538L93.3376 19.6875H95.0372L94.5746 21.8538H92.875Z" fill="white"/>
<path d="M97.9926 12.2969H103.005L102.672 13.7428H99.3373L98.8263 16.1899H101.973L101.655 17.6306H98.509L97.6 21.8678H95.9219L97.9926 12.2969Z" fill="white"/>
<path d="M105.705 12.2969L103.634 21.8308H101.945L104.016 12.2969H105.705Z" fill="white"/>
<path d="M105.375 21.8572L107.44 12.3234H109.382C110.173 17.2386 110.393 18.7958 110.458 19.3308C110.625 18.1814 110.969 16.5024 111.313 14.9399L111.872 12.2969H113.405L111.34 21.8308H109.479C108.72 16.8361 108.489 14.977 108.43 14.4155C108.242 15.5967 107.892 17.3234 107.548 19.0395L106.94 21.8255L105.375 21.8572Z" fill="white"/>
<path d="M115.021 19.4125L113.994 21.8542H112.289L116.484 12.3203H118.765L118.942 21.8542H117.297V19.4125H115.021ZM117.254 18.0089C117.254 16.1974 117.254 14.5449 117.313 13.6127H117.27C116.974 14.5184 116.334 16.1392 115.586 18.0089H117.254Z" fill="white"/>
<path d="M119.773 21.8542L121.839 12.3203H123.781C124.571 17.2356 124.792 18.7928 124.856 19.3277C125.023 18.1784 125.367 16.4993 125.711 14.9368L126.249 12.3203H127.788L125.717 21.8542H123.861C123.103 16.8595 122.866 15.0004 122.812 14.439C122.624 15.6201 122.307 17.3468 121.93 19.0629L121.328 21.8489L119.773 21.8542Z" fill="white"/>
<path d="M133.557 19.1932C133.256 20.2525 132.524 22.0216 130.362 22.0216C128.2 22.0216 127.35 20.4326 128.162 16.7832C128.754 14.1349 129.873 12.1328 132.046 12.1328C134.219 12.1328 134.525 13.7589 134.402 14.8765H132.75C132.75 14.3998 132.836 13.5152 131.879 13.5152C130.922 13.5152 130.292 14.8341 129.862 16.8733C129.356 19.2567 129.41 20.6286 130.507 20.6286C131.346 20.6286 131.761 19.6328 131.879 19.1932H133.557Z" fill="white"/>
<path d="M139.723 17.564H136.587L135.985 20.4082H139.674L139.137 21.8542H134L136.065 12.3203H140.998L140.664 13.7663H137.399L136.899 16.1445H140.035L139.723 17.564Z" fill="white"/>
<path d="M0.053786 28.3889V33.0605L18.2012 33.8391L35.0254 27.7904L34.9717 22.3984L17.4858 22.4514L0 28.1188" fill="white"/>
<path d="M0.053786 17.4333V22.1049L18.2012 22.8835L35.0254 16.8347L34.9717 11.4375L17.4858 11.4958L0 17.1578" fill="white"/>
<path d="M0.053786 6.47483V11.1464L18.2012 11.925L35.0254 5.87632L34.9717 0.484375L17.4858 0.537341L0 6.20471" fill="white"/>
</g>
<defs>
<clipPath id="clip0_1808_574">
<rect width="141" height="33.84" fill="white"/>
</clipPath>
</defs>
</svg>
